<svg width="24" height="24" viewBox="0 0 24 24" fill="none" xmlns="http://www.w3.org/2000/svg">
<path d="M15.7499 6.00018C15.7499 6.99474 15.3548 7.94857 14.6515 8.65183C13.9482 9.35509 12.9944 9.75018 11.9999 9.75018C11.0053 9.75018 10.0515 9.35509 9.3482 8.65183C8.64494 7.94857 8.24985 6.99474 8.24985 6.00018C8.24985 5.00562 8.64494 4.05179 9.3482 3.34853C10.0515 2.64527 11.0053 2.25018 11.9999 2.25018C12.9944 2.25018 13.9482 2.64527 14.6515 3.34853C15.3548 4.05179 15.7499 5.00562 15.7499 6.00018ZM4.50085 20.1182C4.53299 18.1505 5.33719 16.2743 6.74003 14.8942C8.14287 13.5141 10.0319 12.7406 11.9999 12.7406C13.9678 12.7406 15.8568 13.5141 17.2597 14.8942C18.6625 16.2743 19.4667 18.1505 19.4989 20.1182C17.1462 21.1969 14.588 21.7537 11.9999 21.7502C9.32385 21.7502 6.78385 21.1662 4.50085 20.1182Z" stroke="#00101A" stroke-width="1.5" stroke-linecap="round" stroke-linejoin="round"/>
</svg>
